<svg xmlns="http://www.w3.org/2000/svg" width="280" height="210" viewBox="0 0 280 210" role="img" aria-labelledby="t d">
<title id="t">ASCII portrait of Mohith Krishnaa</title>
<desc id="d">Compact monochrome ASCII portrait.</desc>
<rect width="280" height="210" fill="#0d1117"/>
<g fill="#c9d1d9" font-family="monospace" font-size="4.8" xml:space="preserve">
<text x="140" y="10" text-anchor="middle">....................</text>
<text x="140" y="15" text-anchor="middle">.....::::::::::.....</text>
<text x="140" y="20" text-anchor="middle">..::---====---::....</text>
<text x="140" y="25" text-anchor="middle">.:--=++****++=--:...</text>
<text x="140" y="30" text-anchor="middle">:-=+*########*+=-:..</text>
<text x="140" y="35" text-anchor="middle">-=+*##%%%%%%##*+=-:.</text>
<text x="140" y="40" text-anchor="middle">=+*#%%@@@@@@%%#*+=:.</text>
<text x="140" y="45" text-anchor="middle">+*#%%@@@@@@@@%%#*+-..</text>
<text x="140" y="50" text-anchor="middle">*#%%@@@@@@@@@@%%#*=:.</text>
<text x="140" y="55" text-anchor="middle">##%@@@@@%%@@@@@%#*=-.</text>
<text x="140" y="60" text-anchor="middle">#%@@@@%*==*%@@@@%*=-.</text>
<text x="140" y="65" text-anchor="middle">%@@@@@*  ..*@@@@@*=-.</text>
<text x="140" y="70" text-anchor="middle">%@@@@@*    *@@@@@*=-.</text>
<text x="140" y="75" text-anchor="middle">#@@@@@%*==*%@@@@@#=-.</text>
<text x="140" y="80" text-anchor="middle">#@@@@@@%%@@@@@@@%*=:.</text>
<text x="140" y="85" text-anchor="middle">*%@@@@@@@@@@@@@%*=-..</text>
<text x="140" y="90" text-anchor="middle">=*#%@@@@@@@@@%#*=-...</text>
<text x="140" y="95" text-anchor="middle">:=+*#%%%%%%%%#*+=:...</text>
<text x="140" y="100" text-anchor="middle">.-=+*########*+=-:...</text>
<text x="140" y="105" text-anchor="middle">..:-=+******+=-:.....</text>
<text x="140" y="110" text-anchor="middle">....:--====--:.......</text>
<text x="140" y="116" text-anchor="middle">...::::------::::....</text>
<text x="140" y="122" text-anchor="middle">..::---======---::...</text>
<text x="140" y="128" text-anchor="middle">.:--==++++++++==--:..</text>
<text x="140" y="134" text-anchor="middle">:-=++**********++=-:.</text>
<text x="140" y="140" text-anchor="middle">-=+**########**+=-...</text>
<text x="140" y="146" text-anchor="middle">=+*##%%%%%%%%##*+=...</text>
<text x="140" y="152" text-anchor="middle">+*#%%@@@@@@@@%%#*+=...</text>
<text x="140" y="158" text-anchor="middle">*#%%@@@@@@@@@@%%#*=:..</text>
<text x="140" y="164" text-anchor="middle">##%%@@@@@@@@@@%%##=:..</text>
<text x="140" y="170" text-anchor="middle">#%%%@@@@@@@@@@%%%#=...</text>
<text x="140" y="176" text-anchor="middle">*#%%%@@@@@@@@%%%#*=...</text>
<text x="140" y="182" text-anchor="middle">=+*##%%%%%%%%##*+=...</text>
<text x="140" y="188" text-anchor="middle">.-=+*########*+=-....</text>
<text x="140" y="199" text-anchor="middle" fill="#8b949e" font-size="4" letter-spacing="1.5">MK / MOHITH KRISHNAA</text>
</g>
</svg>
